<?xml version="1.0" standalone="no"?>
<!DOCTYPE svg PUBLIC "-//W3C//DTD SVG 20010904//EN"
 "http://www.w3.org/TR/2001/REC-SVG-20010904/DTD/svg10.dtd">
<svg version="1.0" xmlns="http://www.w3.org/2000/svg"
 width="174.000000pt" height="152.000000pt" viewBox="0 0 174.000000 152.000000"
 preserveAspectRatio="xMidYMid meet">

<g transform="translate(0.000000,152.000000) scale(0.100000,-0.100000)"
fill="#000000" stroke="none">
<path d="M842 1178 c-7 -7 -12 -27 -12 -45 0 -30 -3 -33 -29 -33 -16 0 -34 7
-41 15 -14 17 -36 20 -45 5 -3 -6 1 -7 10 -4 9 4 26 -2 39 -15 16 -15 31 -20
47 -16 23 6 25 2 41 -62 9 -37 19 -81 22 -98 6 -29 6 -29 -10 -10 -15 18 -16
18 -10 2 3 -10 0 -25 -8 -33 -12 -12 -23 -7 -75 31 -34 25 -61 50 -61 57 0 6
-3 8 -7 5 -15 -16 100 -110 150 -123 16 -3 27 -13 27 -23 0 -15 -136 -151
-151 -151 -14 0 -18 30 -9 82 8 55 5 72 -10 49 -9 -16 -7 -108 4 -132 5 -12
-10 -32 -59 -74 -36 -32 -71 -67 -76 -77 -6 -11 7 -3 28 16 21 20 85 79 143
132 58 52 116 114 129 136 23 39 25 40 33 18 8 -20 12 -22 51 -15 23 5 73 9
111 9 52 1 71 5 79 17 14 22 2 49 -23 49 -29 0 -24 13 12 30 46 22 57 44 34
69 -11 12 -30 20 -45 20 l-26 -2 25 -4 c64 -12 66 -47 4 -74 l-46 -21 -15 22
c-11 15 -21 19 -36 14 -20 -6 -19 -3 7 25 17 17 34 31 39 31 14 0 36 32 37 51
0 10 -16 23 -40 33 -22 9 -40 20 -40 24 0 5 -23 9 -51 9 -45 1 -54 5 -84 37
-35 39 -45 42 -63 24z m56 -38 c12 -16 34 -33 47 -36 14 -3 22 -10 19 -16 -3
-5 -12 -7 -20 -4 -8 3 -13 2 -11 -2 1 -4 -12 -25 -30 -46 l-31 -39 -12 43
c-13 49 -3 63 40 54 20 -4 22 -3 10 5 -8 6 -27 11 -42 11 -28 0 -34 12 -22 44
9 24 28 19 52 -14z m98 -77 c-14 -13 -26 -26 -26 -29 0 -9 24 9 43 32 16 21
20 22 55 10 21 -8 37 -20 37 -29 0 -15 -178 -177 -195 -177 -11 0 -17 18 -25
73 -7 42 -5 47 30 86 21 23 40 40 42 37 3 -2 13 4 24 15 11 11 25 17 30 13 7
-4 1 -16 -15 -31z m8 -144 l-19 -21 32 19 c25 14 35 15 44 6 18 -18 9 -23 -52
-30 l-54 -6 24 27 c14 14 29 26 34 26 6 0 2 -9 -9 -21z m116 -38 c16 -4 25
-14 25 -26 0 -18 -8 -20 -112 -21 -62 -1 -113 2 -113 7 0 13 23 23 80 35 65
14 87 14 120 5z"/>
<path d="M943 983 c-8 -21 -22 -51 -30 -68 -14 -28 -14 -29 1 -14 17 15 60
119 50 119 -3 0 -12 -17 -21 -37z"/>
<path d="M736 995 c-9 -14 -12 -25 -7 -25 6 0 15 9 21 20 14 26 28 25 59 -2
l26 -23 -24 28 c-30 34 -54 34 -75 2z"/>
<path d="M806 930 c15 -22 29 -38 31 -36 5 5 -46 76 -53 76 -3 0 8 -18 22 -40z"/>
<path d="M730 784 c1 -16 29 -60 29 -44 0 8 -6 24 -14 34 -8 11 -15 16 -15 10z"/>
<path d="M911 740 c24 -16 51 -30 60 -30 8 0 20 -5 26 -11 6 -6 17 -9 25 -7 7
3 -13 18 -45 33 -31 15 -60 31 -63 36 -3 5 -15 9 -26 9 -16 0 -11 -7 23 -30z"/>
<path d="M830 725 c0 -12 67 -45 90 -44 21 1 19 3 -12 13 -20 6 -43 17 -50 24
-12 12 -28 16 -28 7z"/>
<path d="M495 434 c-11 -9 -46 -29 -77 -45 -56 -28 -68 -41 -88 -94 -7 -17 -7
-24 0 -20 6 3 10 12 10 19 0 25 38 62 93 90 30 15 63 36 73 47 21 23 16 24
-11 3z"/>
</g>
</svg>
